<?xml version="1.0" encoding="UTF-8"?>
<svg id="svg11" xmlns="http://www.w3.org/2000/svg" xmlns:xlink="http://www.w3.org/1999/xlink" viewBox="0 0 288.44 1049.41">
  <defs>
    <style>
      .cls-1 {
        fill: url(#linear-gradient);
      }

      .cls-1, .cls-2, .cls-3, .cls-4, .cls-5, .cls-6, .cls-7, .cls-8, .cls-9, .cls-10 {
        stroke-width: 0px;
      }

      .cls-2 {
        fill: url(#linear-gradient-6);
      }

      .cls-11, .cls-12 {
        isolation: isolate;
      }

      .cls-3 {
        fill: #1a1a1a;
      }

      .cls-4 {
        fill: url(#linear-gradient-5);
      }

      .cls-5 {
        fill: #fff;
      }

      .cls-6 {
        fill: url(#linear-gradient-2);
      }

      .cls-7 {
        fill: url(#linear-gradient-7);
      }

      .cls-8 {
        fill: url(#linear-gradient-3);
      }

      .cls-9 {
        fill: url(#linear-gradient-8);
      }

      .cls-13 {
        letter-spacing: .04em;
      }

      .cls-10 {
        fill: url(#linear-gradient-4);
      }

      .cls-12 {
        font-family: Nunito-Regular, Nunito;
        font-size: 21.33px;
      }
    </style>
    <linearGradient id="linear-gradient" x1="-528.02" y1="1762.96" x2="-527.33" y2="1763.66" gradientTransform="translate(13864.97 46842.35) scale(26 -26)" gradientUnits="userSpaceOnUse">
      <stop offset="0" stop-color="#0071ff"/>
      <stop offset="1" stop-color="#00bfe1"/>
    </linearGradient>
    <linearGradient id="linear-gradient-2" x1="-532.4" y1="1758.11" x2="-531.49" y2="1759.02" gradientTransform="translate(17166.63 57232.38) scale(32 -32)" gradientUnits="userSpaceOnUse">
      <stop offset="0" stop-color="#0071ff"/>
      <stop offset="1" stop-color="#00bfe1"/>
    </linearGradient>
    <linearGradient id="linear-gradient-3" x1="-528.02" y1="1762.96" x2="-527.33" y2="1763.66" gradientTransform="translate(13864.97 46842.35) scale(26 -26)" gradientUnits="userSpaceOnUse">
      <stop offset="0" stop-color="#0071ff"/>
      <stop offset="1" stop-color="#00bfe1"/>
    </linearGradient>
    <linearGradient id="linear-gradient-4" x1="-528.02" y1="1762.96" x2="-527.33" y2="1763.66" gradientTransform="translate(13859.15 46760.92) scale(26 -26)" gradientUnits="userSpaceOnUse">
      <stop offset="0" stop-color="#0071ff"/>
      <stop offset="1" stop-color="#00bfe1"/>
    </linearGradient>
    <linearGradient id="linear-gradient-5" x1="-532.4" y1="1758.11" x2="-531.49" y2="1759.02" gradientTransform="translate(17261.68 57234.66) scale(32 -32)" gradientUnits="userSpaceOnUse">
      <stop offset="0" stop-color="#0071ff"/>
      <stop offset="1" stop-color="#01aee6"/>
    </linearGradient>
    <linearGradient id="linear-gradient-6" x1="-523.88" y1="1767.56" x2="-523.19" y2="1768.26" gradientTransform="translate(11582.44 39873.39) scale(22 -22)" gradientUnits="userSpaceOnUse">
      <stop offset="0" stop-color="#0071ff"/>
      <stop offset="1" stop-color="#00bfe1"/>
    </linearGradient>
    <linearGradient id="linear-gradient-7" x1="-528.02" y1="1762.96" x2="-527.33" y2="1763.66" gradientTransform="translate(13741.89 46765.49) scale(26 -26)" gradientUnits="userSpaceOnUse">
      <stop offset="0" stop-color="#0071ff"/>
      <stop offset="1" stop-color="#00bfe1"/>
    </linearGradient>
    <linearGradient id="linear-gradient-8" x1="-528.02" y1="1762.96" x2="-527.33" y2="1763.66" gradientTransform="translate(13735.74 46813.65) scale(26 -26)" gradientUnits="userSpaceOnUse">
      <stop offset="0" stop-color="#0071ff"/>
      <stop offset="1" stop-color="#00bfe1"/>
    </linearGradient>
  </defs>
  <path id="path5412" class="cls-1" d="m154.55,990.49l-2.14,2.12c-.38.34-.56.88-.35,1.34,1.42,2.98.88,6.52-1.45,8.86-2.34,2.33-5.89,2.87-8.87,1.45-.44-.2-.95-.03-1.29.31l-2.17,2.17c-.26.25-.38.6-.34.96.04.35.24.67.55.85,5.11,3.09,11.68,2.31,15.91-1.91,4.23-4.22,5.04-10.77,1.96-15.89-.18-.31-.49-.52-.84-.57-.35-.05-.71.07-.97.32h0Zm-18.47-2.31c-4.25,4.2-5.09,10.76-2.02,15.89.18.31.49.52.84.57.35.05.71-.07.97-.32l2.12-2.11c.38-.34.57-.88.36-1.35-1.42-2.98-.88-6.52,1.45-8.86,2.33-2.33,5.89-2.87,8.87-1.45.43.19.94.03,1.28-.3l2.18-2.18c.26-.25.38-.6.34-.96-.04-.35-.24-.67-.55-.85-5.12-3.07-11.68-2.26-15.89,1.97l.05-.06Z"/>
  <g id="g9521">
    <g id="g3226">
      <path id="path422" class="cls-6" d="m155.49,974.41h-22c-2.76,0-5-2.24-5-5v-22c0-2.76,2.24-5,5-5h22c2.76,0,5,2.24,5,5v22c0,2.76-2.24,5-5,5Z"/>
    </g>
    <path id="path9011" class="cls-5" d="m152.39,952.55l-1.81,1.8c-.32.28-.47.74-.29,1.13,1.2,2.52.75,5.52-1.23,7.49-1.98,1.97-4.98,2.43-7.5,1.23-.37-.17-.81-.03-1.09.26l-1.84,1.83c-.22.21-.32.51-.29.81.03.3.21.57.46.72,4.33,2.62,9.88,1.95,13.46-1.62,3.58-3.57,4.26-9.12,1.65-13.44-.15-.26-.41-.44-.71-.48-.3-.04-.6.06-.82.27Zm-15.63-1.95c-3.6,3.55-4.3,9.1-1.71,13.44.15.26.41.44.71.48.3.04.6-.06.82-.27l1.8-1.78c.33-.28.48-.75.3-1.14-1.2-2.52-.75-5.52,1.23-7.49,1.97-1.97,4.98-2.43,7.5-1.23.37.16.8.03,1.08-.25l1.85-1.84c.22-.21.32-.51.29-.81-.04-.3-.21-.57-.46-.72-4.33-2.6-9.88-1.91-13.45,1.67l.04-.05Z"/>
  </g>
  <path id="path9523" class="cls-8" d="m154.55,990.49l-2.14,2.12c-.38.34-.56.88-.35,1.34,1.42,2.98.88,6.52-1.45,8.86-2.34,2.33-5.89,2.87-8.87,1.45-.44-.2-.95-.03-1.29.31l-2.17,2.17c-.26.25-.38.6-.34.96.04.35.24.67.55.85,5.11,3.09,11.68,2.31,15.91-1.91,4.23-4.22,5.04-10.77,1.96-15.89-.18-.31-.49-.52-.84-.57-.35-.05-.71.07-.97.32h0Zm-18.47-2.31c-4.25,4.2-5.09,10.76-2.02,15.89.18.31.49.52.84.57.35.05.71-.07.97-.32l2.12-2.11c.38-.34.57-.88.36-1.35-1.42-2.98-.88-6.52,1.45-8.86,2.33-2.33,5.89-2.87,8.87-1.45.43.19.94.03,1.28-.3l2.18-2.18c.26-.25.38-.6.34-.96-.04-.35-.24-.67-.55-.85-5.12-3.07-11.68-2.26-15.89,1.97l.05-.06Z"/>
  <g id="g9759">
    <g id="g8359">
      <g id="text9011" class="cls-11">
        <text class="cls-12" transform="translate(157.61 922.97)"><tspan x="0" y="0">Suppo</tspan><tspan class="cls-13" x="61.8" y="0">r</tspan><tspan x="70.16" y="0">t Desk</tspan></text>
      </g>
    </g>
    <path id="path9751" class="cls-10" d="m148.73,909.06l-2.14,2.12c-.38.34-.56.88-.35,1.34,1.42,2.98.88,6.52-1.45,8.86-2.34,2.33-5.89,2.87-8.87,1.45-.44-.2-.95-.03-1.29.31l-2.17,2.17c-.26.25-.38.6-.34.96.04.35.24.67.55.85,5.11,3.09,11.68,2.31,15.91-1.91,4.23-4.22,5.04-10.77,1.96-15.89-.18-.31-.49-.52-.84-.57-.35-.05-.71.07-.97.32h0Zm-18.47-2.31c-4.25,4.2-5.09,10.76-2.02,15.89.18.31.49.52.84.57.35.05.71-.07.97-.32l2.12-2.11c.38-.34.57-.88.36-1.35-1.42-2.98-.88-6.52,1.45-8.86,2.33-2.33,5.89-2.87,8.87-1.45.43.19.94.03,1.28-.3l2.18-2.18c.26-.25.38-.6.34-.96-.04-.35-.24-.67-.55-.85-5.12-3.07-11.68-2.26-15.89,1.97l.05-.06Z"/>
  </g>
  <g id="g9767">
    <g id="g9763">
      <path id="path9761" class="cls-4" d="m250.54,976.68h-22c-2.76,0-5-2.24-5-5v-22c0-2.76,2.24-5,5-5h22c2.76,0,5,2.24,5,5v22c0,2.76-2.24,5-5,5Z"/>
    </g>
    <path id="path9765" class="cls-5" d="m247.43,954.82l-1.81,1.8c-.32.28-.47.74-.29,1.13,1.2,2.52.75,5.52-1.23,7.49-1.98,1.97-4.98,2.43-7.5,1.23-.37-.17-.81-.03-1.09.26l-1.84,1.83c-.22.21-.32.51-.29.81.03.3.21.57.46.72,4.33,2.62,9.88,1.95,13.46-1.62,3.58-3.57,4.26-9.12,1.65-13.44-.15-.26-.41-.44-.71-.48-.3-.04-.6.06-.82.27Zm-15.63-1.95c-3.6,3.55-4.3,9.1-1.71,13.44.15.26.41.44.71.48.3.04.6-.06.82-.27l1.8-1.78c.33-.28.48-.75.3-1.14-1.2-2.52-.75-5.52,1.23-7.49,1.97-1.97,4.98-2.43,7.5-1.23.37.16.8.03,1.08-.25l1.85-1.84c.22-.21.32-.51.29-.81-.04-.3-.21-.57-.46-.72-4.33-2.6-9.88-1.91-13.45,1.67l.04-.05Z"/>
  </g>
  <g id="g9889">
    <rect id="rect9885" class="cls-5" x="48.51" y="964.2" width="32" height="32"/>
    <path id="path9829" class="cls-2" d="m72.4,974.33l-1.81,1.8c-.32.28-.47.74-.29,1.13,1.2,2.52.75,5.52-1.23,7.49-1.98,1.97-4.98,2.43-7.5,1.23-.37-.17-.81-.03-1.09.26l-1.84,1.83c-.22.21-.32.51-.29.81.03.3.21.57.46.72,4.33,2.62,9.88,1.95,13.46-1.62,3.58-3.57,4.26-9.12,1.65-13.44-.15-.26-.41-.44-.71-.48-.3-.04-.6.06-.82.27Zm-15.63-1.95c-3.6,3.55-4.3,9.1-1.71,13.44.15.26.41.44.71.48.3.04.6-.06.82-.27l1.8-1.78c.33-.28.48-.75.3-1.14-1.2-2.52-.75-5.52,1.23-7.49,1.97-1.97,4.98-2.43,7.5-1.23.37.16.8.03,1.08-.25l1.85-1.84c.22-.21.32-.51.29-.81-.04-.3-.21-.57-.46-.72-4.33-2.6-9.88-1.91-13.45,1.67l.04-.05Z"/>
  </g>
  <path id="path357" class="cls-3" d="m155.01,1029.48l-2.14,2.12c-.38.34-.56.88-.35,1.34,1.42,2.98.88,6.52-1.45,8.86-2.34,2.33-5.89,2.87-8.87,1.45-.44-.2-.95-.03-1.29.31l-2.17,2.17c-.26.25-.38.6-.34.96.04.35.24.67.55.85,5.11,3.09,11.68,2.31,15.91-1.91,4.23-4.22,5.04-10.77,1.96-15.89-.18-.31-.49-.52-.84-.57-.35-.05-.71.07-.97.32h0Zm-18.47-2.31c-4.25,4.2-5.09,10.76-2.02,15.89.18.31.49.52.84.57.35.05.71-.07.97-.32l2.12-2.11c.38-.34.57-.88.36-1.35-1.42-2.98-.88-6.52,1.45-8.86,2.33-2.33,5.89-2.87,8.87-1.45.43.19.94.03,1.28-.3l2.18-2.18c.26-.25.38-.6.34-.96-.04-.35-.24-.67-.55-.85-5.12-3.07-11.68-2.26-15.89,1.97l.05-.06Z"/>
  <path id="path408" class="cls-5" d="m75.64,1018.47l-2.14,2.12c-.38.34-.56.88-.35,1.34,1.42,2.98.88,6.52-1.45,8.86-2.34,2.33-5.89,2.87-8.87,1.45-.44-.2-.95-.03-1.29.31l-2.17,2.17c-.26.25-.38.6-.34.96.04.35.24.67.55.85,5.11,3.09,11.68,2.31,15.91-1.91,4.23-4.22,5.04-10.77,1.96-15.89-.18-.31-.49-.52-.84-.57-.35-.05-.71.07-.97.32Zm-18.47-2.31c-4.25,4.2-5.09,10.76-2.02,15.89.18.31.49.52.84.57.35.05.71-.07.97-.32l2.12-2.11c.38-.34.57-.88.36-1.35-1.42-2.98-.88-6.52,1.45-8.86,2.33-2.33,5.89-2.87,8.87-1.45.43.19.94.03,1.28-.3l2.18-2.18c.26-.25.38-.6.34-.96-.04-.35-.24-.67-.55-.85-5.12-3.07-11.68-2.26-15.89,1.97l.05-.06Z"/>
  <g id="g763">
    <g id="g761">
      <rect id="rect757" class="cls-5" x="6.15" y="904.53" width="32" height="32" rx="5" ry="5"/>
      <path id="path759" class="cls-7" d="m31.47,913.6l-2.14,2.12c-.38.34-.56.88-.35,1.34,1.42,2.98.88,6.52-1.45,8.86-2.34,2.33-5.89,2.87-8.87,1.45-.44-.2-.95-.03-1.29.31l-2.17,2.17c-.26.25-.38.6-.34.96.04.35.24.67.55.85,5.11,3.09,11.68,2.31,15.91-1.91,4.23-4.22,5.04-10.77,1.96-15.89-.18-.31-.49-.52-.84-.57-.35-.05-.71.07-.97.32h0Zm-18.47-2.31c-4.25,4.2-5.09,10.76-2.02,15.89.18.31.49.52.84.57.35.05.71-.07.97-.32l2.12-2.11c.38-.34.57-.88.36-1.35-1.42-2.98-.88-6.52,1.45-8.86,2.33-2.33,5.89-2.87,8.87-1.45.43.19.94.03,1.28-.3l2.18-2.18c.26-.25.38-.6.34-.96-.04-.35-.24-.67-.55-.85-5.12-3.07-11.68-2.26-15.89,1.97l.05-.06Z"/>
    </g>
  </g>
  <g id="g340">
    <g id="g369">
      <rect id="rect336" class="cls-5" y="952.7" width="32" height="32" rx="7" ry="7"/>
      <path id="path338" class="cls-9" d="m25.32,961.77l-2.14,2.12c-.38.34-.56.88-.35,1.34,1.42,2.98.88,6.52-1.45,8.86-2.34,2.33-5.89,2.87-8.87,1.45-.44-.2-.95-.03-1.29.31l-2.17,2.17c-.26.25-.38.6-.34.96.04.35.24.67.55.85,5.11,3.09,11.68,2.31,15.91-1.91,4.23-4.22,5.04-10.77,1.96-15.89-.18-.31-.49-.52-.84-.57-.35-.05-.71.07-.97.32h0Zm-18.47-2.31c-4.25,4.2-5.09,10.76-2.02,15.89.18.31.49.52.84.57.35.05.71-.07.97-.32l2.12-2.11c.38-.34.57-.88.36-1.35-1.42-2.98-.88-6.52,1.45-8.86,2.33-2.33,5.89-2.87,8.87-1.45.43.19.94.03,1.28-.3l2.18-2.18c.26-.25.38-.6.34-.96-.04-.35-.24-.67-.55-.85-5.12-3.07-11.68-2.26-15.89,1.97l.05-.06Z"/>
    </g>
  </g>
</svg>