<?xml version="1.0" encoding="UTF-8"?>
<svg id="Layer_1" data-name="Layer 1" xmlns="http://www.w3.org/2000/svg" xmlns:xlink="http://www.w3.org/1999/xlink" viewBox="0 0 1000 286.6">
  <defs>
    <style>
      .cls-1 {
        letter-spacing: -.02em;
      }

      .cls-2, .cls-3 {
        fill: #0071ff;
      }

      .cls-2, .cls-4, .cls-5 {
        fill-rule: evenodd;
        stroke-width: 0px;
      }

      .cls-3 {
        font-family: Nunito-Regular, Nunito;
        font-size: 34px;
      }

      .cls-4 {
        fill: url(#linear-gradient);
      }

      .cls-5 {
        fill: #e5e5e5;
      }

      .cls-6 {
        letter-spacing: -.02em;
      }

      .cls-7 {
        letter-spacing: -.03em;
      }

      .cls-8 {
        letter-spacing: -.01em;
      }
    </style>
    <linearGradient id="linear-gradient" x1="-454.02" y1="678.89" x2="-453.32" y2="679.59" gradientTransform="translate(43140.79 63950.61) scale(94 -94)" gradientUnits="userSpaceOnUse">
      <stop offset="0" stop-color="#0071ff"/>
      <stop offset="1" stop-color="#00bfe1"/>
    </linearGradient>
  </defs>
  <path class="cls-5" d="m0,0h1000v286.6H0V0Z"/>
  <path class="cls-2" d="m408.3,239.9c.2-.27.43-.4.7-.4.33,0,.6.1.8.3.2.27.3.53.3.8s-.1.5-.3.7l-5.3,6.7v6.5c0,.4-.13.73-.4,1-.2.13-.47.2-.8.2s-.6-.1-.8-.3c-.2-.2-.3-.5-.3-.9v-6.5l-5.4-6.7c-.2-.2-.3-.43-.3-.7,0-.33.1-.6.3-.8.27-.2.53-.3.8-.3.33,0,.6.13.8.4l5,6.2,4.9-6.2Zm6.6,15.9c-1.07,0-2.03-.27-2.9-.8-.8-.47-1.43-1.13-1.9-2-.4-.87-.6-1.87-.6-3s.2-2.13.6-3c.47-.87,1.13-1.53,2-2,.8-.47,1.73-.7,2.8-.7s2,.23,2.8.7c.87.47,1.53,1.13,2,2,.4.87.6,1.87.6,3,0,1.13-.2,2.13-.6,3-.47.87-1.13,1.53-2,2-.8.53-1.73.8-2.8.8Zm0-1.9c1,0,1.77-.33,2.3-1,.53-.67.8-1.63.8-2.9s-.27-2.23-.8-2.9c-.53-.67-1.3-1-2.3-1-1,0-1.77.33-2.3,1-.53.67-.8,1.67-.8,3,0,1.2.27,2.13.8,2.8.53.67,1.3,1,2.3,1h0Zm16.5-9.6c.4,0,.7.1.9.3.2.2.3.47.3.8v9.2c0,.33-.1.6-.3.8-.27.2-.57.3-.9.3s-.6-.1-.8-.3c-.13-.2-.2-.43-.2-.7v-.9c-.4.67-.9,1.17-1.5,1.5-.67.33-1.33.5-2,.5-2.67,0-4-1.5-4-4.5v-5.8c0-.33.07-.6.2-.8.2-.2.5-.3.9-.3.33,0,.6.1.8.3.2.2.3.47.3.8v5.9c0,.87.2,1.53.6,2,.33.4.87.6,1.6.6.93,0,1.67-.3,2.2-.9.53-.53.8-1.3.8-2.3v-5.3c0-.33.1-.6.3-.8.2-.2.47-.3.8-.3v-.1Zm10.2,0c.67,0,1,.33,1,1,0,.27-.07.5-.2.7-.13.13-.43.23-.9.3h-.6c-1,.13-1.73.47-2.2,1-.4.67-.6,1.37-.6,2.1v5.2c0,.4-.13.67-.4.8-.2.2-.47.3-.8.3s-.6-.1-.8-.3c-.2-.13-.3-.4-.3-.8v-9.1c0-.33.1-.6.3-.8.2-.2.47-.3.8-.3.33,0,.6.1.8.3.2.2.3.47.3.8v1c.27-.67.7-1.17,1.3-1.5.6-.33,1.27-.53,2-.6l.3-.1Zm14.3,0c.67,0,1,.33,1,1,0,.27-.07.5-.2.7l-.9.3h-.7c-.93.13-1.6.47-2,1-.53.67-.8,1.37-.8,2.1v5.2c0,.4-.1.67-.3.8-.2.2-.47.3-.8.3s-.6-.1-.8-.3c-.27-.13-.4-.4-.4-.8v-9.1c0-.33.13-.6.4-.8.2-.2.47-.3.8-.3.33,0,.6.1.8.3.2.2.3.47.3.8v1c.27-.67.7-1.17,1.3-1.5.53-.33,1.2-.53,2-.6l.3-.1Zm10.9,8.5c.2,0,.37.1.5.3.13.13.2.33.2.6,0,.4-.27.77-.8,1.1-.53.33-1.13.57-1.8.7-.6.2-1.17.3-1.7.3-1.8,0-3.2-.53-4.2-1.6-1-1-1.5-2.4-1.5-4.2,0-1.13.2-2.13.6-3,.47-.87,1.13-1.53,2-2,.73-.47,1.63-.7,2.7-.7,1.47,0,2.63.47,3.5,1.4.87.93,1.3,2.2,1.3,3.8,0,.67-.27,1-.8,1h-7c.13,2.33,1.23,3.5,3.3,3.5.6,0,1.1-.1,1.5-.3l1.3-.6.4-.1.5-.2Zm-4-6.9c-.87,0-1.53.3-2,.9-.6.53-.93,1.3-1,2.3h5.8c0-1-.27-1.77-.8-2.3-.47-.6-1.13-.9-2-.9Zm20-1.6c2.47,0,3.7,1.47,3.7,4.4v6c0,.27-.1.5-.3.7-.2.2-.47.3-.8.3-.33,0-.63-.1-.9-.3-.2-.2-.3-.47-.3-.8v-5.9c0-.87-.17-1.53-.5-2-.33-.4-.83-.6-1.5-.6-.87,0-1.53.3-2,.9-.47.53-.7,1.3-.7,2.3v5.3c0,.33-.1.6-.3.8-.27.2-.57.3-.9.3-.33,0-.6-.1-.8-.3-.2-.2-.3-.47-.3-.8v-5.9c0-.87-.17-1.53-.5-2-.33-.4-.87-.6-1.6-.6-.8,0-1.47.3-2,.9-.47.53-.7,1.3-.7,2.3v5.3c0,.33-.1.6-.3.8-.2.2-.47.3-.8.3-.33,0-.63-.1-.9-.3-.2-.2-.3-.47-.3-.8v-9.1c0-.33.1-.6.3-.8.27-.2.57-.3.9-.3.27,0,.5.1.7.3.27.2.4.47.4.8v.8c.33-.67.77-1.13,1.3-1.4.67-.33,1.33-.5,2-.5.87,0,1.6.17,2.2.5.53.33.93.87,1.2,1.6.33-.67.83-1.17,1.5-1.5.67-.4,1.4-.6,2.2-.6v-.1Zm11.7,11.5c-1.13,0-2.13-.27-3-.8-.8-.47-1.4-1.13-1.8-2-.47-.87-.7-1.87-.7-3s.23-2.13.7-3c.4-.87,1.03-1.53,1.9-2,.8-.47,1.77-.7,2.9-.7s2.07.23,2.8.7c.87.47,1.53,1.13,2,2,.4.87.6,1.87.6,3s-.23,2.13-.7,3c-.4.87-1.03,1.53-1.9,2-.8.53-1.73.8-2.8.8Zm0-1.9c1,0,1.77-.33,2.3-1,.53-.67.8-1.63.8-2.9s-.27-2.23-.8-2.9c-.6-.67-1.37-1-2.3-1-.93,0-1.73.33-2.4,1-.53.67-.8,1.67-.8,3,0,1.2.27,2.13.8,2.8.53.67,1.33,1,2.4,1h0Zm13.3,0c.33.07.57.17.7.3s.2.33.2.6c0,.33-.1.57-.3.7-.27.2-.6.27-1,.2h-.7c-1.2-.13-2.1-.5-2.7-1.1-.67-.67-1-1.67-1-3v-5.3h-1.3c-.67,0-1-.3-1-.9,0-.27.1-.47.3-.6.2-.2.43-.3.7-.3h1.4v-2.3c0-.33.1-.6.3-.8.2-.2.47-.3.8-.3s.63.1.9.3c.2.2.3.47.3.8v2.3h2.2c.33,0,.57.1.7.3.2.13.3.33.3.6s-.1.5-.3.7c-.13.13-.37.2-.7.2h-2.1v5.5c0,.67.13,1.2.4,1.6.33.27.8.43,1.4.5h.5Zm11.2-1c.27,0,.47.07.6.2.13.13.2.33.2.6,0,.4-.27.77-.8,1.1-.53.33-1.13.57-1.8.7-.67.2-1.27.3-1.8.3-1.73,0-3.1-.53-4.1-1.6-1-1-1.5-2.4-1.5-4.2,0-1.13.2-2.13.6-3,.47-.87,1.1-1.53,1.9-2s1.73-.7,2.8-.7c1.47,0,2.63.47,3.5,1.4.87.93,1.3,2.2,1.3,3.8,0,.67-.3,1-.9,1h-7c.2,2.33,1.33,3.5,3.4,3.5.6,0,1.1-.1,1.5-.3l1.3-.6.3-.1.5-.2v.1Zm-3.9-7c-.87,0-1.57.3-2.1.9-.53.53-.87,1.3-1,2.3h5.9c0-1-.27-1.77-.8-2.3-.47-.6-1.13-.9-2-.9Zm22.3-6.4c.33,0,.6.1.8.3.27.2.4.47.4.8v14c0,.33-.13.6-.4.8-.2.2-.47.3-.8.3s-.6-.1-.8-.3c-.2-.2-.3-.47-.3-.8v-1c-.33.67-.83,1.2-1.5,1.6s-1.4.6-2.2.6c-.93,0-1.77-.27-2.5-.8-.73-.47-1.33-1.13-1.8-2-.4-.87-.6-1.87-.6-3,0-1.2.2-2.2.6-3,.47-.87,1.07-1.53,1.8-2,.67-.47,1.5-.7,2.5-.7.87,0,1.6.17,2.2.5.67.33,1.17.83,1.5,1.5v-5.8c0-.27.1-.5.3-.7.2-.2.47-.3.8-.3Zm-4.2,14.4c1,0,1.77-.33,2.3-1,.53-.67.8-1.63.8-2.9s-.27-2.23-.8-2.9c-.53-.67-1.3-1-2.3-1-1,0-1.77.33-2.3,1-.6.67-.9,1.63-.9,2.9,0,1.2.3,2.17.9,2.9.53.67,1.3,1,2.3,1Zm17.2-1c.2,0,.37.07.5.2s.2.33.2.6c0,.4-.27.77-.8,1.1-.53.33-1.1.57-1.7.7-.67.2-1.27.3-1.8.3-1.73,0-3.13-.53-4.2-1.6-1-1-1.5-2.4-1.5-4.2,0-1.13.23-2.13.7-3s1.1-1.53,1.9-2,1.7-.7,2.7-.7c1.47,0,2.63.47,3.5,1.4.87.93,1.3,2.2,1.3,3.8,0,.67-.27,1-.8,1h-7c.13,2.33,1.27,3.5,3.4,3.5.53,0,1-.1,1.4-.3.47-.13.9-.33,1.3-.6l.4-.1.5-.2v.1Zm-4-7c-.8,0-1.47.3-2,.9-.53.53-.87,1.3-1,2.3h5.9c-.07-1-.33-1.77-.8-2.3-.47-.6-1.13-.9-2-.9h-.1Zm11.2,9.9c-1.53,0-2.8-.33-3.8-1-.27-.13-.47-.3-.6-.5l-.1-.6c0-.27.07-.47.2-.6.13-.2.3-.3.5-.3s.53.13,1,.4l1.2.6c.47.13,1.03.2,1.7.2.67,0,1.23-.13,1.7-.4.4-.27.6-.6.6-1,0-.33-.1-.6-.3-.8-.13-.2-.4-.37-.8-.5l-1.7-.5c-1.33-.27-2.33-.63-3-1.1-.53-.53-.8-1.2-.8-2,0-.67.2-1.27.6-1.8s.93-.93,1.6-1.2,1.4-.4,2.2-.4c.67,0,1.27.07,1.8.2.6.13,1.1.37,1.5.7.53.33.8.7.8,1.1,0,.27-.1.5-.3.7-.13.13-.3.2-.5.2h-.4c-.13,0-.3-.13-.5-.4l-1.2-.5c-.33-.13-.77-.2-1.3-.2-.67,0-1.17.13-1.5.4-.4.27-.6.6-.6,1,0,.47.17.8.5,1,.4.27,1.07.5,2,.7,1.07.2,1.87.47,2.4.8.6.27,1,.6,1.2,1,.27.4.4.9.4,1.5,0,1-.4,1.8-1.2,2.4s-1.9.9-3.3.9h0Zm16.4-2c.27.2.4.47.4.8s-.1.6-.3.8-.43.3-.7.3c-.33,0-.6-.1-.8-.3l-5.6-5v4.2c0,.33-.13.6-.4.8-.2.2-.47.3-.8.3s-.6-.1-.8-.3-.3-.47-.3-.8v-14c0-.33.1-.6.3-.8s.47-.3.8-.3.6.1.8.3c.27.2.4.47.4.8v8.9l5.1-4.8c.27-.27.53-.4.8-.4s.5.1.7.3c.2.27.3.53.3.8s-.1.53-.3.8l-4,3.7,4.4,3.9Zm7.7.2c.33,0,.57.07.7.2.2.13.3.33.3.6,0,.33-.13.57-.4.7-.2.2-.53.27-1,.2h-.6c-1.27-.13-2.2-.5-2.8-1.1-.6-.67-.9-1.67-.9-3v-5.3h-1.3c-.67,0-1-.3-1-.9,0-.27.07-.47.2-.6.2-.2.47-.3.8-.3h1.3v-2.3c0-.33.1-.6.3-.8s.5-.3.9-.3c.33,0,.6.1.8.3.2.2.3.47.3.8v2.3h2.3c.27,0,.5.1.7.3.2.13.3.33.3.6s-.1.5-.3.7c-.2.13-.43.2-.7.2h-2.3v5.5c0,.67.13,1.2.4,1.6.33.27.8.43,1.4.5l.6.1Zm7.4,1.8c-1.07,0-2-.27-2.8-.8-.87-.47-1.53-1.13-2-2-.4-.87-.6-1.87-.6-3s.2-2.13.6-3c.47-.87,1.13-1.53,2-2,.8-.47,1.73-.7,2.8-.7s2.03.23,2.9.7c.8.47,1.43,1.13,1.9,2s.7,1.87.7,3-.23,2.13-.7,3-1.13,1.53-2,2c-.73.53-1.67.8-2.8.8h0Zm0-1.9c1,0,1.77-.33,2.3-1,.6-.67.9-1.63.9-2.9s-.3-2.23-.9-2.9c-.53-.67-1.3-1-2.3-1-1,0-1.77.33-2.3,1-.53.67-.8,1.67-.8,3,0,1.2.27,2.13.8,2.8.53.67,1.3,1,2.3,1h0Zm14-9.6c.93,0,1.77.23,2.5.7.73.47,1.3,1.13,1.7,2,.47.87.7,1.87.7,3,0,1.2-.2,2.2-.6,3-.4.8-1,1.47-1.8,2-.73.53-1.6.8-2.6.8-.8,0-1.53-.2-2.2-.6-.6-.33-1.07-.83-1.4-1.5v5c0,.33-.1.6-.3.8-.2.2-.47.3-.8.3s-.63-.1-.9-.3c-.2-.2-.3-.47-.3-.8v-13.3c0-.33.1-.6.3-.8s.5-.3.9-.3c.33,0,.6.1.8.3.2.2.3.47.3.8v1c.33-.67.8-1.2,1.4-1.6.67-.33,1.4-.5,2.2-.5h.1Zm-.6,9.6c1,0,1.77-.33,2.3-1,.53-.67.8-1.6.8-2.8,0-1.33-.27-2.33-.8-3-.53-.67-1.3-1-2.3-1s-1.77.33-2.3,1c-.53.67-.8,1.67-.8,3,0,1.2.27,2.13.8,2.8.53.67,1.3,1,2.3,1Z"/>
  <path class="cls-4" d="m533.7,74.2l-7.7,7.6c-1.4,1.3-2,3.2-1.3,4.9,5.25,10.69,3.16,23.52-5.2,32-8.49,8.33-21.31,10.41-32,5.2-1.7-.7-3.5,0-4.7,1.2l-7.9,7.8c-1.62,1.66-1.58,4.32.08,5.94.22.21.46.4.72.56,22.25,13.36,51.13,6.15,64.49-16.1,8.9-14.82,8.94-33.33.11-48.2-.65-1.08-1.75-1.82-3-2-1.29-.25-2.62.12-3.6,1v.1Zm-66.7-8.4c-15.4,15.19-18.42,38.94-7.3,57.5,1.15,2.01,3.72,2.71,5.73,1.56.32-.18.61-.4.87-.66l7.7-7.6c1.4-1.3,2-3.2,1.3-5-5.25-10.69-3.16-23.52,5.2-32,8.49-8.33,21.31-10.41,32-5.2,1.6.7,3.5.1,4.7-1l7.9-8c1.62-1.66,1.58-4.32-.08-5.94-.22-.21-.46-.4-.72-.56-18.5-11.08-42.16-8.15-57.4,7.1l.1-.2Z"/>
  <text class="cls-3" transform="translate(375.73 219.55)"><tspan class="cls-8" x="0" y="0">SUP</tspan><tspan class="cls-1" x="66.2" y="0">P</tspan><tspan class="cls-8" x="87.45" y="0">O</tspan><tspan class="cls-7" x="112.98" y="0">R</tspan><tspan class="cls-8" x="135.18" y="0">T D</tspan><tspan class="cls-6" x="188.09" y="0">E</tspan><tspan class="cls-8" x="207.09" y="0">SK</tspan></text>
</svg>