<?xml version="1.0" encoding="UTF-8"?>
<svg id="Layer_1" data-name="Layer 1" xmlns="http://www.w3.org/2000/svg" xmlns:xlink="http://www.w3.org/1999/xlink" viewBox="0 0 114.26 26">
  <defs>
    <style>
      .cls-1 {
        fill: url(#linear-gradient);
        stroke-width: 0px;
      }

      .cls-2 {
        letter-spacing: 0em;
      }

      .cls-3 {
        letter-spacing: .04em;
      }

      .cls-4 {
        font-family: Nunito-Regular, Nunito;
        font-size: 13px;
      }
    </style>
    <linearGradient id="linear-gradient" x1="-869.74" y1="567.44" x2="-869.04" y2="568.13" gradientTransform="translate(22617.42 14775.13) scale(26 -26)" gradientUnits="userSpaceOnUse">
      <stop offset="0" stop-color="#024eff"/>
      <stop offset="1" stop-color="#01aee6"/>
    </linearGradient>
  </defs>
  <path class="cls-1" d="m22.33,6.07l-2.14,2.12c-.38.34-.56.88-.35,1.34,1.42,2.98.88,6.52-1.45,8.86-2.33,2.33-5.89,2.87-8.87,1.45-.44-.2-.95-.03-1.29.31l-2.17,2.17c-.46.45-.46,1.18-.02,1.63.07.07.14.13.22.18,5.11,3.09,11.68,2.31,15.91-1.91,4.23-4.21,5.04-10.77,1.96-15.89-.31-.55-1.02-.75-1.57-.43-.09.05-.17.11-.24.18h0ZM3.86,3.76C-.39,7.96-1.23,14.52,1.84,19.65c.31.55,1.02.75,1.57.43.09-.05.17-.11.24-.18l2.12-2.11c.39-.34.57-.88.36-1.35-1.42-2.98-.88-6.52,1.45-8.86,2.33-2.33,5.89-2.87,8.87-1.45.43.19.94.03,1.28-.3l2.18-2.18c.46-.44.46-1.17.02-1.63-.07-.07-.14-.13-.23-.18C14.58-1.22,8.03-.41,3.81,3.82l.05-.06Z"/>
  <text class="cls-4" transform="translate(34.54 17.63)"><tspan x="0" y="0">Suppo</tspan><tspan class="cls-3" x="37.66" y="0">r</tspan><tspan class="cls-2" x="42.76" y="0">t Desk</tspan></text>
</svg>